PathFileType	4	(X/Y/Z)	OpenSim_Sub01_CSBaseline_Magnet.trc
DataRate	CameraRate	NumFrames	NumMarkers	Units	OrigDataRate	OrigDataStartFrame	OrigNumFrames
100	100	30	8	m	100	4463	5950
Frame#	Time	torso_imu_offset_imu	pelvis_imu_offset_imu	tibia_r_imu_offset_imu	femur_r_imu_offset_imu	tibia_l_imu_offset_imu	femur_l_imu_offset_imu	toes_r_imu_offset_imu	toes_l_imu_offset_imu
				X1	Y1	Z1	X2	Y2	Z2	X3	Y3	Z3	X4	Y4	Z4	X5	Y5	Z5	X6	Y6	Z6	X7	Y7	Z7	X8		Y8	Z8	

4463	44.62000000	-0.92007029	-0.11594790	0.06302435	-0.68924694	0.14707750	-0.61037751	-0.74078372	-0.24270647	-0.05449428	-0.78330058	-0.21876703	0.09610492	-0.47186079	0.62447087	0.23182816	-0.38046194	-0.00404656	0.34823105	-0.55061296	0.11454465	-0.58506829	-0.74546370	-0.11322758	-0.34575043
4464	44.63000000	-0.92187783	-0.11674795	0.06282732	-0.68717283	0.14650291	-0.61080545	-0.74125972	-0.23587076	-0.05537297	-0.78207740	-0.21914746	0.10039397	-0.46617346	0.62771194	0.22842953	-0.37602455	0.00151891	0.34961071	-0.54535380	0.12488575	-0.58911902	-0.75079658	-0.11292987	-0.33919191
4465	44.64000000	-0.92287964	-0.11694168	0.06399409	-0.68757480	0.14500886	-0.61061927	-0.73962728	-0.23128916	-0.05788859	-0.78101038	-0.22024130	0.10552614	-0.45928461	0.63101011	0.22432538	-0.37169546	0.00838244	0.34990888	-0.54335244	0.12938065	-0.59174923	-0.75815152	-0.11449319	-0.33359680
4466	44.65000000	-0.92234439	-0.11586341	0.06508635	-0.68793951	0.14210619	-0.61030033	-0.73699638	-0.23004958	-0.05943584	-0.78082962	-0.22103292	0.10913198	-0.45441442	0.63523756	0.22085521	-0.36798203	0.01340637	0.35129488	-0.54257101	0.13077351	-0.59287403	-0.76265199	-0.11517173	-0.32573048
4467	44.66000000	-0.92034860	-0.11338640	0.06546862	-0.68689660	0.13760070	-0.61013368	-0.73444822	-0.23244907	-0.05865563	-0.78153006	-0.22078398	0.11015869	-0.45264589	0.64087700	0.21865243	-0.36512082	0.01520941	0.35455401	-0.54209396	0.13022904	-0.59255062	-0.76230685	-0.11404382	-0.31397991
4468	44.67000000	-0.91877365	-0.11058306	0.06632909	-0.68569724	0.13195836	-0.60995356	-0.73298751	-0.23699922	-0.05702069	-0.78145850	-0.21939257	0.11051715	-0.45023555	0.64753711	0.21675187	-0.36274568	0.01638894	0.35733794	-0.54356158	0.12531900	-0.59114665	-0.76165302	-0.11431627	-0.30042180
4469	44.68000000	-0.91948513	-0.10860372	0.06883469	-0.68582166	0.12574856	-0.60957552	-0.73337316	-0.24216036	-0.05617319	-0.77899173	-0.21700780	0.11230040	-0.44327320	0.65471278	0.21408775	-0.36048103	0.01979985	0.35718215	-0.54877839	0.11360995	-0.58900227	-0.76546502	-0.11928735	-0.28746350
4470	44.69000000	-0.92166458	-0.10772826	0.07138587	-0.68745318	0.11968577	-0.60925197	-0.73393366	-0.24835809	-0.05554830	-0.77511816	-0.21548139	0.11534241	-0.43286984	0.66194463	0.21078875	-0.35869534	0.02539788	0.35479933	-0.55767420	0.09763390	-0.58573989	-0.77185119	-0.12743300	-0.27577206
4471	44.70000000	-0.92291619	-0.10772100	0.07076154	-0.69000966	0.11456713	-0.60949115	-0.73157435	-0.25717027	-0.05328445	-0.77236064	-0.21766077	0.11814596	-0.42308953	0.66880249	0.20768654	-0.35819215	0.03143147	0.35277102	-0.56907547	0.08284039	-0.58055719	-0.77500262	-0.13439343	-0.26498701
4472	44.71000000	-0.92210921	-0.10790612	0.06595032	-0.69283108	0.11056389	-0.61040792	-0.72546101	-0.26868244	-0.04860745	-0.77193874	-0.22455530	0.11951960	-0.41608970	0.67531980	0.20526852	-0.35894378	0.03677139	0.35251851	-0.58235923	0.07222072	-0.57237192	-0.77233310	-0.13772797	-0.25456003
4473	44.72000000	-0.92098121	-0.10664068	0.06091815	-0.69510568	0.10644838	-0.61123195	-0.71984402	-0.27961718	-0.04320686	-0.77211984	-0.23304440	0.11899255	-0.40968856	0.68256370	0.20323368	-0.35905538	0.04172634	0.35282039	-0.59816280	0.06319697	-0.55948944	-0.76856008	-0.13935973	-0.24355321
4474	44.73000000	-0.92146749	-0.10243045	0.05979127	-0.69607991	0.10107181	-0.61114280	-0.71908800	-0.28667077	-0.03886011	-0.77094074	-0.23975217	0.11630989	-0.40138417	0.69152265	0.20114086	-0.35670020	0.04671976	0.35225501	-0.61702927	0.05271645	-0.54054709	-0.76886065	-0.14159296	-0.23103926
4475	44.74000000	-0.92353815	-0.09666755	0.06139861	-0.69581312	0.09605368	-0.61003929	-0.72163443	-0.29096546	-0.03481063	-0.76818204	-0.24443577	0.11243845	-0.39143125	0.70092907	0.19820345	-0.35336285	0.05135083	0.35102501	-0.63676880	0.04060426	-0.51846491	-0.77295454	-0.14457068	-0.21674465
4476	44.75000000	-0.92600567	-0.09243931	0.06145455	-0.69484444	0.09463742	-0.60824626	-0.72244150	-0.29622709	-0.02881411	-0.76465343	-0.24869562	0.10906577	-0.38170494	0.70819251	0.19343172	-0.35247146	0.05473416	0.35028680	-0.65358780	0.02837976	-0.49867754	-0.77734799	-0.14716410	-0.20078068
4477	44.76000000	-0.92802651	-0.09125664	0.05788021	-0.69376726	0.09814012	-0.60646403	-0.71876005	-0.30462272	-0.02013164	-0.76125397	-0.25307869	0.10787488	-0.37285844	0.71241835	0.18597417	-0.35536471	0.05633004	0.35026226	-0.66548122	0.01684620	-0.48412776	-0.77977800	-0.14890201	-0.18308635
4478	44.77000000	-0.92955809	-0.09106411	0.05361040	-0.69328217	0.10353376	-0.60621831	-0.71305688	-0.31476622	-0.01142619	-0.75905257	-0.25572832	0.11051803	-0.36277183	0.71653390	0.17529361	-0.35866314	0.05638394	0.34906050	-0.67448093	0.00516003	-0.47212582	-0.78082037	-0.15081711	-0.16320509
4479	44.78000000	-0.93062513	-0.08954949	0.05190220	-0.69402946	0.10744858	-0.60884197	-0.70821607	-0.32493212	-0.00546539	-0.75893738	-0.25473593	0.11835922	-0.34928643	0.72367378	0.16110958	-0.35880622	0.05521420	0.34471154	-0.68296287	-0.00757148	-0.45957702	-0.78140058	-0.15399729	-0.14062663
4480	44.79000000	-0.93082814	-0.08673108	0.05233683	-0.69587743	0.10905620	-0.61252417	-0.70414329	-0.33485493	-0.00134562	-0.75969369	-0.25101434	0.12982987	-0.33371722	0.73377408	0.14535301	-0.35695516	0.05279462	0.33737961	-0.69121590	-0.02044872	-0.44707450	-0.78208864	-0.15799949	-0.11483884
4481	44.80000000	-0.92952180	-0.08400031	0.05233291	-0.69823979	0.10902770	-0.61360880	-0.69899216	-0.34512877	0.00399424	-0.75887193	-0.24713887	0.14163555	-0.31941903	0.74488574	0.13125054	-0.35704799	0.04889756	0.32848694	-0.69829985	-0.03151817	-0.43738051	-0.78324257	-0.16147813	-0.08533022
4482	44.81000000	-0.92698827	-0.08239031	0.05055158	-0.70070985	0.10809998	-0.61041107	-0.69195671	-0.35600209	0.01187076	-0.75522979	-0.24527331	0.15134845	-0.30777997	0.75542247	0.12015942	-0.36121576	0.04368016	0.31924540	-0.70372548	-0.03954744	-0.43192492	-0.78473248	-0.16321444	-0.05195505
4483	44.82000000	-0.92558630	-0.08209513	0.04848876	-0.70329472	0.10711360	-0.60569781	-0.68460304	-0.36692729	0.01964572	-0.75025420	-0.24661538	0.15852428	-0.29574097	0.76466176	0.10922845	-0.36747749	0.03816393	0.31036122	-0.70804513	-0.04494359	-0.42910198	-0.78534599	-0.16229865	-0.01538384
4484	44.83000000	-0.92760825	-0.08309703	0.04782378	-0.70603047	0.10668763	-0.60258996	-0.67866463	-0.37726772	0.02447925	-0.74568540	-0.25205186	0.16302893	-0.28000068	0.77208571	0.09548042	-0.37351467	0.03337356	0.30231478	-0.71193725	-0.04840237	-0.42698478	-0.78385105	-0.15804385	0.02354980
4485	44.84000000	-0.93176037	-0.08436396	0.04816974	-0.70867415	0.10500998	-0.60164538	-0.67428965	-0.38657940	0.02697361	-0.74206647	-0.26060920	0.16516004	-0.26096837	0.77808220	0.08051585	-0.37926792	0.02915877	0.29396145	-0.71592720	-0.05130963	-0.42457098	-0.78032461	-0.15163201	0.06346830
4486	44.85000000	-0.93464080	-0.08426961	0.04792446	-0.71081819	0.09884744	-0.60191176	-0.67069171	-0.39453396	0.02975503	-0.73923426	-0.27021954	0.16547087	-0.24123776	0.78357166	0.06862644	-0.38600744	0.02467679	0.28320418	-0.72044708	-0.05545294	-0.42140398	-0.77561413	-0.14534126	0.10267517
4487	44.86000000	-0.93441383	-0.08206777	0.04625013	-0.71205784	0.08773110	-0.60281440	-0.66721786	-0.40121603	0.03404534	-0.73702680	-0.27948534	0.16470989	-0.22244944	0.78910787	0.06213078	-0.39433806	0.01921669	0.26925920	-0.72530446	-0.06146958	-0.41710063	-0.77019735	-0.14010348	0.13989739
4488	44.87000000	-0.93279905	-0.07899301	0.04404959	-0.71199933	0.07740099	-0.60466466	-0.66353977	-0.40762839	0.03787435	-0.73530510	-0.28853631	0.16405380	-0.20405427	0.79441113	0.05886745	-0.40334172	0.01238161	0.25430046	-0.72891620	-0.06741872	-0.41142595	-0.76370486	-0.13381520	0.17481601
4489	44.88000000	-0.93184326	-0.07639969	0.04237859	-0.71038058	0.07370776	-0.60776191	-0.65945177	-0.41473941	0.03913345	-0.73389088	-0.29767294	0.16455623	-0.18530370	0.79908911	0.05637092	-0.41194883	0.00388686	0.24072681	-0.72977804	-0.07111749	-0.40430571	-0.75575258	-0.12421713	0.20719450
4490	44.89000000	-0.93200470	-0.07411180	0.04144028	-0.70828327	0.07497124	-0.61104379	-0.65556090	-0.42187956	0.03874323	-0.73216800	-0.30682535	0.16540233	-0.16644896	0.80275130	0.05529417	-0.41965301	-0.00583355	0.22912699	-0.72914319	-0.07148538	-0.39711841	-0.74698766	-0.11168139	0.23631483
4491	44.90000000	-0.93280479	-0.07105480	0.04093536	-0.70757669	0.07508267	-0.61265094	-0.65294918	-0.42741803	0.03940437	-0.72926493	-0.31570567	0.16468129	-0.14832984	0.80501053	0.05811799	-0.42628186	-0.01592047	0.21902301	-0.72988411	-0.06809799	-0.39209335	-0.73866554	-0.09813303	0.26117513
4492	44.91000000	-0.93382489	-0.06704707	0.04066898	-0.70904497	0.07088174	-0.61205074	-0.65174454	-0.43076843	0.04235624	-0.72492336	-0.32412769	0.16181524	-0.13152226	0.80595511	0.06481083	-0.43203960	-0.02527798	0.21015714	-0.73330897	-0.06175621	-0.39015867	-0.73201742	-0.08562616	0.28081371
